#!OML:ASF F:\VICON\USERDATA\INSTALL\rory3\rory3.ASF
:FULLY-SPECIFIED
:DEGREES
46
root -0.17361623785842406 17.048417692791652 16.897165619150556 3.3463971009667763 -2.368873490002913 -5.079957240854027
lfemur -23.40326937675 5.852642962993288 -11.22176421664233
ltibia 96.5287556569432
lfoot 3.463029712552281 -6.625013017845921
ltoes -3.10065677914917
rfemur -21.954165126267046 4.214672214511392 35.0211481557782
rtibia 57.68219449960317
rfoot -16.313918935544052 -16.079977629848784
rtoes 1.8503629955844445
lowerback 17.187483364965058 0.547085430223528 2.9357963804380733
upperback -0.23344598129978378 1.6415012803801832 3.646307105556932
thorax -10.180619388737647 0.7303764981540913 1.813615975902699
lowerneck -22.055372006252195 -3.041658504928023 -1.4523206175019885
upperneck 12.55865837801413 -3.881797177256593 1.6066539820230226
head 7.483027773565698 -1.775221142423021 0.20575458507653527
lclavicle -1.7318187062617582e-15 1.7828305332748595e-15
lhumerus -50.612025550189514 -14.787335460725416 99.52168978572037
lradius 97.13295228828659
lwrist 33.39138323438298
lhand -25.23632666064972 2.524587280028178
lfingers 7.12502
lthumb 1.2833800290751993 32.497838992083516
rclavicle -1.7318187062617584e-15 1.782830533274859e-15
rhumerus -45.528861954329265 9.946586106818938 -95.78408634811029
rradius 107.86301901483607
rwrist -9.98363316145541
rhand -17.214549964981376 39.38274543165314
rfingers 7.12502
rthumb 9.027726720350998 9.395021456601345
47
root -0.17756214496154624 17.10275291092284 17.634058197559888 3.6490922468200027 -1.4798993911288227 -5.113106238528339
lfemur -28.173768034818693 5.600201007892407 -11.467149891285983
ltibia 96.50682613916365
lfoot 1.5683203670582277 -5.562091412397322
ltoes -4.465994549286386
rfemur -18.085351518068812 3.7592273823159035 35.239373577554495
rtibia 56.329947839994055
rfoot -16.548838700177207 -16.13433544998023
rtoes -2.095180236620498
lowerback 16.96844638254877 0.7443797487379779 3.2341004782158578
upperback -0.34562264995500824 1.950991506687045 3.532233101399899
thorax -10.115124448130695 0.8562737304172168 1.438841654711982
lowerneck -22.057149405331963 -3.330959187208092 -1.509742118785879
upperneck 12.50784326169421 -4.290247694542362 1.809172219833893
head 7.478423976703295 -1.9553881819901917 0.2419334999652591
lclavicle -1.54061741610716e-15 1.9218191794839586e-15
lhumerus -52.71018304805628 -15.245777999152365 100.03932877218944
lradius 98.70385879604522
lwrist 33.76475799037052
lhand -24.801629788646554 2.4636882311987325
lfingers 7.12502
lthumb 1.7031630333561076 32.42829152064932
rclavicle -1.5406174161071602e-15 1.9218191794839586e-15
rhumerus -43.64782800970517 10.820193792602401 -95.36036684292937
rradius 109.34326461888749
rwrist -10.317487073530456
rhand -17.00644630574366 39.556383549199225
rfingers 7.12502
rthumb 9.228535298262802 9.573982140019133
48
root -0.16556975485737335 17.213853196688863 18.504312779190627 3.944633551748623 -0.6437517867114576 -5.1431442839076755
lfemur -31.729698092077662 5.060952541356199 -11.920373679606875
ltibia 95.05424414015503
lfoot 0.2723790687610365 -4.749932299343715
ltoes -5.827434975278579
rfemur -14.05463390397645 3.393623596935079 35.48461570360124
rtibia 54.565025482327385
rfoot -15.411481391713844 -15.222950472395716
rtoes -5.569033522006775
lowerback 16.702961484972374 0.9641060252004685 3.6984051700632516
upperback -0.5085141657947192 2.316427838870441 3.391212384270523
thorax -10.045899492750282 0.9984080835310831 0.9241630013473173
lowerneck -21.973295550169134 -3.621093706346265 -1.5940585129451628
upperneck 12.655331330848394 -4.6954889332458585 2.002557851448661
head 7.524484937718357 -2.1369530936609777 0.2744885577864729
lclavicle -1.1332688600345533e-15 2.2164919975542573e-15
lhumerus -54.58639174644434 -15.565242769934153 100.38450246969212
lradius 100.5034874639087
lwrist 34.169945957117775
lhand -24.141647745156497 2.3293858721692926
lfingers 7.12502
lthumb 2.340493135503027 32.28101827140414
rclavicle -1.1332688600345533e-15 2.2164919975542573e-15
rhumerus -42.17727378739643 11.310056149312016 -94.8873963815985
rradius 110.9414794654375
rwrist -10.693686735060997
rhand -16.92393428744176 39.82042558347222
rfingers 7.12502
rthumb 9.30818751004468 9.854554982780423
49
root -0.15475430693183972 17.3563736895529 18.852882981659903 4.116616293363791 0.06214934755078827 -5.287442929471796
lfemur -35.03943512957894 4.177918520437529 -12.59342019926065
ltibia 91.59730430513216
lfoot -1.1397622102447917 -4.2747504057312415
ltoes -7.358388154009339
rfemur -10.263973418692471 2.9613704193251977 35.54817079528999
rtibia 51.78406411932727
rfoot -12.934636405372567 -13.358016458603878
rtoes -8.436520860058492
lowerback 16.375122113377248 1.1816529070006516 4.204996498892897
upperback -0.7173125313525802 2.6865936579463483 3.186153102933446
thorax -9.991025808388239 1.1377145006753717 0.19263766146576566
lowerneck -21.82924611701236 -3.944449336812839 -1.685745891993967
upperneck 12.879914103521047 -5.156994431474403 2.1756663657788584
head 7.584629718856529 -2.34352089829766 0.2970368187790925
lclavicle -1.306446185092593e-15 2.0898932255285285e-15
lhumerus -56.84693912361892 -15.64092809802281 100.46180248303176
lradius 102.09295846006532
lwrist 34.44897933082857
lhand -23.43946127247876 2.2116350965086755
lfingers 7.12502
lthumb 3.0185911948708375 32.147664690618704
rclavicle -1.3064461850925934e-15 2.0898932255285285e-15
rhumerus -41.16964558610077 11.463786014411578 -94.47187232767362
rradius 112.32099428314658
rwrist -10.994922862911416
rhand -16.929640378187315 39.96850382409667
rfingers 7.12502
rthumb 9.302823638576845 10.063030817361241
50
root -0.11790944158750989 17.549859797397072 20.286741067120694 4.231082042614184 0.9391118114871901 -5.23550632292751
lfemur -36.37153888125132 3.1468779412883783 -13.15989347023094
ltibia 87.69953835514171
lfoot -1.54687721675295 -3.958469642410037
ltoes -8.601893879252763
rfemur -5.734187753730302 2.591674412989984 35.60794439721179
rtibia 49.764197683491425
rfoot -8.304220353061378 -10.557590812092494
rtoes -9.099587123705549
lowerback 16.094728593078052 1.411848991453485 4.811251985943184
upperback -0.8923654057717649 3.075892631858833 2.9935213659005124
thorax -9.901814171594872 1.2819234765647405 -0.4301179771754754
lowerneck -21.492154741739096 -4.171686238278487 -1.756602126168396
upperneck 13.211811627209904 -5.484396074254045 2.3590279171750757
head 7.65671205907755 -2.4912212769669533 0.33076802623863
lclavicle -4.767490584960115e-16 2.6911742875685145e-15
lhumerus -58.44352662863147 -14.922851459705278 100.38482612819243
lradius 103.67749406244643
lwrist 34.545587000959394
lhand -22.929142019694847 2.499935890434362
lfingers 7.12502
lthumb 3.5113915379648573 32.42511107423155
rclavicle -4.767490584960115e-16 2.6911742875685153e-15
rhumerus -40.15086545337769 11.648375653469131 -93.95704225619484
rradius 113.4961735336337
rwrist -10.969841584212444
rhand -16.788863781440487 40.04447316300369
rfingers 7.12502
rthumb 9.438883438609171 10.266085627144053
51
root -0.09275185950564746 17.730338026759007 20.58842442115548 4.137115007740455 1.7045631108859682 -5.167509256716301
lfemur -37.88159956011454 1.6006669855906108 -14.184275126056788
ltibia 81.4585535687555
lfoot -2.4285077142814906 -4.297588037054107
ltoes -10.815404450462623
rfemur -2.436226468248904 1.8416981820292169 35.11739564385837
rtibia 45.55360380522705
rfoot -2.9592156071828857 -7.6144815043740355
rtoes -8.717346397232664
lowerback 15.668166908069537 1.4976643461293944 5.089400082557636
upperback -1.1158150118480485 3.208570451709426 2.6878270880320425
thorax -9.82302853683525 1.322371501011553 -1.1433139779420731
lowerneck -21.09017436355673 -4.415692062741625 -1.8474874236509393
upperneck 13.481529805219646 -5.843713958175197 2.4479875901472985
head 7.69073168433159 -2.6562366228251113 0.33790364519876315
lclavicle -1.1115000658902915e-15 2.2312618846160578e-15
lhumerus -60.765201576633835 -14.069848745092711 99.95064750573822
lradius 104.46872587039222
lwrist 34.39976451945569
lhand -22.95043349389633 2.665082294256677
lfingers 7.12502
lthumb 3.4908101066490724 32.58881499498352
rclavicle -1.111500065890292e-15 2.2312618846160578e-15
rhumerus -39.97801965645901 11.445189742949854 -93.64964444568503
rradius 114.05799904503043
rwrist -10.900036860873385
rhand -16.537966456959182 39.88217081855197
rfingers 7.12502
rthumb 9.681171471656683 10.32427290042689
